<svg xmlns="http://www.w3.org/2000/svg" viewBox="0 0 244.94 379.1"><defs><style>.cls-1{fill:#251829;}.cls-2{fill:#23222d;}.cls-3{fill:#23232d;}.cls-4{fill:#d68b84;}.cls-5{fill:#95553c;}.cls-6{fill:#532f5a;}.cls-7{fill:#2d196d;}.cls-8{fill:#24222b;}.cls-9{fill:#644441;}.cls-10{fill:#39243f;}.cls-11{fill:#39243e;}.cls-12{fill:#502059;}.cls-13{fill:#49465a;}.cls-14{fill:#7e7182;}.cls-15{fill:#c18e8a;}.cls-16{fill:#978492;}.cls-17{fill:#4f1f58;}.cls-18{fill:#2b1726;}.cls-19{fill:#120607;}.cls-20{fill:#471f34;}.cls-21{fill:#a46162;}.cls-22{fill:#d48c85;}.cls-23{fill:#5e3f3d;}.cls-24{fill:#0f0f14;}.cls-25{fill:#060202;}.cls-26{fill:#91535c;}.cls-27{fill:#663524;}.cls-28{fill:#4b233e;}.cls-29{fill:#722221;}</style></defs><title>資產 13</title><g id="圖層_2" data-name="圖層 2"><g id="others"><path class="cls-1" d="M107.09,33.31c5.18-1.36,10.35-2.75,15.54-4.08,12-3.07,24.07-6,36.45-7,4.45-.37,9,.06,13.44.2a7.76,7.76,0,0,1,2.28.6c3.69,1.32,5.16,3.93,3.4,7.39s-4.18,6.25-6.35,9.32c-.49.69-1.11,1.29-2.11,2.43,1.58-.37,2.58-.51,3.5-.84,10.54-3.78,21.05-7.65,31.62-11.37a52.4,52.4,0,0,1,8.25-2c2.38-.42,4.87-.3,6.41,2,1.66,2.45,2.08,5.28.49,7.83A55.31,55.31,0,0,1,213.81,46c-9.89,10.71-21.1,20-32.82,28.54-13.23,9.67-26.87,18.78-40.32,28.14l-.94-6.31c1.45-2.05,1.14-3.81-.9-5.26l-6.29-13.62c3.43-1.08,6.65-.91,9.5,1.55,1.07.93,1.94,2.52,3.63.72a41.23,41.23,0,0,1,3.62-3c-2.06,0-3.57.46-4.52-.08-4.48-2.55-9-3-13.64-.74l-1.07-2.16.62-1.18c1.65-4,1.66-4-1.25-6.9-1.47-1.46-3-2.89-4.45-4.34a6.15,6.15,0,0,1-.41-.82,11.48,11.48,0,0,0-6.91-7.68,20.81,20.81,0,0,0-13.34-.26,7.91,7.91,0,0,1-2.3-.11c-2.12-.07-4.41-.65-6.33-.06A28.63,28.63,0,0,0,87,56.61c-3.48,2.61-7.16,5.45-9.45,9C74,71.2,71.4,77.43,68.58,83.45A10.57,10.57,0,0,0,69.09,94c-3.15.8-3.12,3.49-3.51,5.93-2.69,3.81-2.91,8.14-2.65,12.58a3.53,3.53,0,0,1-.23,1.61c-2.45,5.35-6.81,9-11.17,12.7-10.38-.78-20.76-1.59-30.62-5.33-1.62-.61-3.2-1.33-4.74-2.1C5.87,114.24,4.48,104.23,6.82,95.11c1.62-6.33,5.25-11.59,9.62-16.34C25.7,68.68,37.09,61.52,49.17,55.42c6.67-3.37,13.62-6.19,20.45-9.25,5-1.89,10-3.93,15-5.65C92.08,38,99.6,35.7,107.09,33.31ZM59.63,104.74c-6.53-12.84-.91-24.39,3.66-36.21C54.68,74.43,51.95,99.22,59.63,104.74Zm86.73-14.52.66.53c.94-1.1,1.87-2.21,2.83-3.29,5.22-5.86,9.78-12.14,11.37-20a19.79,19.79,0,0,0-.82-11.57A2.79,2.79,0,0,0,157,54.19c3.66,6.16,4.09,12.19,1.31,18.29a54.9,54.9,0,0,1-10.22,15.36A20.45,20.45,0,0,0,146.36,90.22ZM43.68,107.89l.9-.35C39,98.45,42.11,89.5,45,80.3c-.59.28-.88.32-1,.47-4,7.85-5.19,16-2.35,24.49A10.49,10.49,0,0,0,43.68,107.89Zm120-27.75c4.67-2.81,11.1-15.24,10.34-19.81Z"/><path class="cls-2" d="M69.58,282.57c-.92-4.23-1.78-8.48-2.77-12.7-.83-3.56-1.3-3.84-4.86-3.42-2.58.3-5.16.79-7.75.86-5.63.15-8.41-2.38-8.69-8a7.4,7.4,0,0,1,1.2-4.17q14.3-21.56,28.8-43c7-10.36,14.33-20.55,21.42-30.87a4.37,4.37,0,0,0,.61-3.17C96,172,94.19,166,92.48,159.92l3.61,1.42c3,4.68,6,9.33,8.95,14,1.23,2,2.3,4.05,3.44,6.08-.14,1.66-1.42,1.33-2.29,1.08-1.79-.5-3.49-1.31-5.26-1.89a4.51,4.51,0,0,0-1.66.13c.09.56,0,1.26.3,1.65a3.36,3.36,0,0,0,1.69,1.16c3.23.84,6.49,1.57,9.75,2.33a4.2,4.2,0,0,1,.44.55q9.15,16.28,18.27,32.56a3.52,3.52,0,0,1,.48,1.53c.09,2.65.11,5.31.15,8l-2.91,2.92c-1-5.91-3.07-11.5-5.23-17.36-1.1,1.69.84,10.57,3.77,18.78-1.06,1.15-2.09,2.33-3.2,3.44q-22.16,22.2-44.33,44.4a18.41,18.41,0,0,0-1.75,2.42ZM104.36,205l-.84-.68a12.91,12.91,0,0,0-1.6,1.68c-3,4.59-6,9.22-9,13.8-3.36,5.1-6.52,10.37-10.22,15.22-5.85,7.67-12.09,15-18.13,22.57a6.5,6.5,0,0,0-.7,1.93l.83.46C79.24,242.64,93.5,225.05,104.36,205Z"/><path class="cls-3" d="M152.93,216.77a305.93,305.93,0,0,1,16.7,46.94c1.68,6.15,3,12.4,4.35,18.63.51,2.34-.34,2.95-2.51,2-1.57-.71-3.07-1.61-4.57-2.48s-2.48-.55-3.16,1.05c-1.52,3.55-3,7.11-4.68,10.59-2.5,5.23-3.52,5.49-7.81,1.54-3.18-2.93-6-6.21-9.07-9.31-2.35-2.41-2.48-2.38-4.48.49s-3.83,5.58-5.88,8.27-4.39,4.07-7.74,2.48l-9.79-9.65c-2.56-3.17-5-6.42-7.77-9.43-.43-.48-2.34-.22-3.12.33-3.67,2.58-7.16,5.41-10.76,8.09-3.91,2.9-7.77,5.93-12.64,7.16L79.1,286q17.62-16.58,35.25-33.16c1.6-1.5,3.31-2.89,5-4.33-.15,2.93-.12,5.89-.49,8.8-.75,5.81-1.73,11.59-2.58,17.38a17.61,17.61,0,0,0,0,2.52l.8,0c2.35-10.24,4.43-20.52,4.68-31.11l6.08-5.74a10.43,10.43,0,0,0,.11,1.18c1.13,5.52,2.32,11,3.38,16.57,1,5.07,1.79,10.16,2.74,15.23a6.26,6.26,0,0,0,1,1.79l.8-.28a16.1,16.1,0,0,0,0-2.48c-1.22-7.72-2.35-15.46-3.77-23.14-.65-3.49-1.88-6.88-2.85-10.31l3.82-3.66c2.21,1.58,4.53,1.17,6.72.11s4-2.29,5.95-3.42a2.7,2.7,0,0,1,1.11-.2c3.6-.26,5.09-2.21,4.08-5.71a52.75,52.75,0,0,0-2.23-5.46Zm-7.42,22.28L155,270.6C156.76,265.66,149.12,241.14,145.51,239.05Z"/><path class="cls-4" d="M139.73,96.41l.94,6.31c-.29.34-.77.64-.85,1-.55,2.59-1,5.21-1.51,7.81-1.76,2.55-3.14,5.5-5.34,7.58-6.28,5.92-14.41,7.2-22.59,8.13l-1,.2-3.77.1-13.76-3.16c-4.36-2.68-8.15-5.9-10.49-10.59a2.21,2.21,0,0,0-1.69-.8c-8-.14-13.52-5.31-14-13.14.38-2.44.36-5.12,3.51-5.93.49.66,1.35,1.3,1.4,2,.28,4.16,1.74,5.35,6,4.73,1.24-.18,1.91-.72,1.77-2-.26-2.26-.46-4.54-.92-6.76s-.89-4.42,1.11-6.33c.66-.63.8-1.81,1.17-2.75.67-.54,1.38-1,2-1.63a19.52,19.52,0,0,1,26.91.15,9.73,9.73,0,0,0,1.3.89l.53-.47a21,21,0,0,0-1.16-2.13,14.84,14.84,0,0,0-8-5.57c-4-1.3-8.09-.93-12.17-.42q0-.19,0-.38l4.34-2.89c2.73-1,5.51-1.8,8.17-2.94a21.47,21.47,0,0,0,4.74-3,2.68,2.68,0,0,0,.64-2.27c-.09-.42-1.23-.88-1.88-.87-1.87,0-3.74.3-5.6.47l-.44-5c2.48,1.21,4.88,2.27,7.16,3.53,3.78,2.08,7.44,4.36,11.23,6.42,1.65.9,3.46,1.57,5.31.3l.36,0c0,3,2,4.31,4.37,5.38.9.41,1.77.89,2.65,1.34L131.12,76a14.84,14.84,0,0,0-7.62,7.23l9-5.66,6.29,13.62C138.21,93.06,137.55,95,139.73,96.41ZM73.21,109.57l.87.75c1.27-.7,2.59-1.32,3.78-2.14,1-.69.91-1.49-.13-2.25-2.46-1.79-4.84-3.7-7.33-5.46a8.71,8.71,0,0,0-2.39-.8c.42.73.81,1.47,1.28,2.17.16.24.51.36.75.55l5.19,4.16ZM89.65,85.74a13.46,13.46,0,0,0,.73,3.35,9.75,9.75,0,0,0,2,2,9.7,9.7,0,0,0,1.53-2.62,4.15,4.15,0,0,0-.47-2.72,13,13,0,0,0-2.22-2.34Zm43,2.73A42.83,42.83,0,0,0,131,84.38c-.23-.46-1.05-1-1.41-.93a2.14,2.14,0,0,0-1.36,1.36,9.15,9.15,0,0,0,.22,3.93c.33.92,1.45,1.55,2.22,2.31ZM122.1,93.61c.41-1.46,1-2.42.87-3.31A4.66,4.66,0,0,0,116.14,87c-.27.16-.62.76-.54.87.28.37.77.92,1.11.87,2.83-.37,4.31.72,4.3,3.66C121,92.59,121.31,92.76,122.1,93.61Zm17.24,3.62c-1-.59-1.67-1.31-2.12-1.19a2.06,2.06,0,0,0-1.2,1.56c0,.51.78,1,1.22,1.54ZM87.75,98c-.73,1.14-1.42,1.77-1.45,2.42,0,.47.84,1,1.31,1.47A7.26,7.26,0,0,0,88.92,100C89,99.64,88.38,99,87.75,98Zm47-7.95c-.74.93-1.56,1.53-1.49,2,.12.66.87,1.21,1.36,1.81a7.21,7.21,0,0,0,1.29-1.93C136,91.57,135.3,91,134.7,90.08Zm-44.2,4.33c-.9-.58-1.67-1.29-1.87-1.16a3.94,3.94,0,0,0-1.42,1.82c-.09.24,1,1.27,1.21,1.18A10.94,10.94,0,0,0,90.51,94.41Zm-6.81.72C83,96.39,82.45,97,82.44,97.6s.68,1,1.05,1.46c.42-.56,1-1.08,1.2-1.7C84.8,96.92,84.26,96.32,83.69,95.13Z"/><path class="cls-5" d="M79.1,286l.91,7.42-1.43,4-4.41,7.56c-3.23,3.12-6.48,6.23-9.67,9.4-.38.38-.42,1.1-.6,1.67-.32,1-.62,2-.92,3-2.18,3.23-4,6.76-6.6,9.65-9.1,10.25-20.87,14.88-34.37,15.45-1.72.07-3.44-.17-5.17-.26l-.38-.68,8.39-6.31H9.07c2.86-4.15,7-5.83,10.39-8.69L0,329.11c.86-3.28,3.06-4.21,4.8-5.49a45.16,45.16,0,0,0,5.41-4.16L4.4,318.9c2.42-1.52,4.28-2.73,6.18-3.86,9.41-5.64,18.94-11.09,29.55-14.18a59.89,59.89,0,0,1,10.23-1.61,2.46,2.46,0,0,0,2.45-1.61c2.82-6.21,6.89-11.29,13.43-13.95,1.09-.44,2.23-.75,3.35-1.12l7.11.57Zm-9.08.9,0,0c-2.31,3.54-6.11,6.16-7.14,10.88C66.59,296.7,74,289.64,74,287.29l-3.52,2.41c.35-2.34,3.37-3.36,2.11-5.86C65.73,285.71,54.66,297,54.24,304c.83-1.07,1.3-1.64,1.73-2.23,2.7-3.66,5.18-7.51,8.16-10.92C65.64,289.16,68,288.2,70,286.89ZM53.29,311l.88.49c-.32,1.47-.32,3.14-1,4.37a31.58,31.58,0,0,1-5,6.82c-4.35,4.2-9,8.06-13.53,12.1a5.86,5.86,0,0,0-.92,1.66c.62.23,1.29.75,1.85.66,7.74-1.32,14.6-4.36,19.72-10.57a10,10,0,0,0,1-1.86l-.57-.56c-5.09,3.64-9.67,8.2-16.27,9.36.19-.55.75-.68,1.13-1,5-4.53,10.07-9.05,13.49-15,1.62-2.83,1.83-6.55,0-9a85.83,85.83,0,0,1-32.76,23c.49.41.88.64,1.16.54A73.2,73.2,0,0,0,53.29,311Zm-.18-4.78-.36-.69a6.39,6.39,0,0,0-1.56.09C47,306.94,42.7,308,38.66,309.7c-8.28,3.46-16.42,7.24-24.6,10.92a10,10,0,0,0-1.77,1.32l.39.61c1.14-.44,2.28-.86,3.41-1.31,7.65-3.11,15.28-6.28,23-9.32,4.09-1.62,8.28-3,12.4-4.54A8,8,0,0,0,53.11,306.21ZM20.66,314c6.6-5.2,14.4-7.79,22.87-10.32C38,301.51,22.06,309.5,20.66,314Z"/><path class="cls-6" d="M65.58,99.88c.53,7.83,6.09,13,14,13.14a2.21,2.21,0,0,1,1.69.8c2.34,4.7,6.13,7.91,10.49,10.59l1.91,7.12a19.47,19.47,0,0,1-3,1.7c-2,.73-1.24,1.72-.25,2.51a27.25,27.25,0,0,0,3.51,2l-1.68,1.85a49,49,0,0,0-4.9,3c-3.09,2.4-3.67,4.9-1.87,8.33,1.17,2.22,2.69,4.26,4,6.39-4.08,5.77-8.57,6.88-14.67,3.61-3.71-2-3.71-2-6.2,1.25-1.83,2.38-4,2.8-7.88,1.33L64.15,157l-.4-.38c-.72.46-1.44.91-2.14,1.39-3.49,2.36-7,4.09-11.49,2.67-1.31-.42-3.08.14-4.5.65s-2.49,1.75-3.88,2.21c-1,.34-2.78.38-3.32-.23a4,4,0,0,1-.63-3.56,15.06,15.06,0,0,1,3.45-4.42c2.46-2.32,5.14-4.41,7.68-6.65,1.81-1.59,2-3.36.67-5.46-3.21-5.08-2.73-10,1-14.68a12.74,12.74,0,0,0,1-1.78c4.36-3.68,8.73-7.35,11.17-12.7a3.53,3.53,0,0,0,.23-1.61C62.68,108,62.9,103.7,65.58,99.88Zm3.07,15-.62-.51a19.65,19.65,0,0,0-2.24,2.43c-3,4.62-4,9.49-1.48,14.69.8,1.68.37,2.46-1.58,2.92-1,.24-2,1.52-2.55,2.56-1,1.87-1.68,4-2.66,5.87-1.21,2.34-2.71,4.54-3.83,6.93-.25.52.58,1.55.91,2.34a9.43,9.43,0,0,0,1.67-1.58c.8-1.23,1.4-2.58,2.13-3.85,1.5-2.61,3-5.24,4.59-7.8a5.72,5.72,0,0,1,1.87-1.93c3.28-1.88,3.58-3.1,2-6.69a24,24,0,0,1-1.55-5.83C64.77,120.75,66.47,117.72,68.66,114.9ZM70.15,143l.21.83c1.39,0,2.77,0,4.16,0a5.29,5.29,0,0,0,5.43-4.61,7.1,7.1,0,0,1,4.18-5.79c2.46-1.26,3-3.27,1.91-5.72a5.5,5.5,0,0,0-1,.52,66.29,66.29,0,0,0-5.25,4.45,5.24,5.24,0,0,0-1.6,3.19,5.23,5.23,0,0,1-3.63,5.22C73.09,141.68,71.63,142.33,70.15,143Zm13.49,7.41c-.65.23-1.24.26-1.45.55-2.09,2.91-4.83,3.41-8.1,2.39a3.75,3.75,0,0,0-2.1.05c-1.34.42-2.65,1-2.19,3.51C71,153.64,73,154,75.19,154.65a12.9,12.9,0,0,0,3.23.5A5,5,0,0,0,83.65,150.37Zm-2.36-30.66c-2.8-.8-4.87,1.1-5.11,3.83a34.41,34.41,0,0,1-1,5.94c-.25.93-1.18,1.67-1.81,2.49a4.71,4.71,0,0,0,3.68-4C77.76,124.87,77.75,121.59,81.29,119.71Zm-12.8,25.21c0,.05,0,.12,0,.15a.46.46,0,0,0,.18,0l0-.25Z"/><path class="cls-7" d="M106.1,32.07a1.09,1.09,0,0,1-.52,1.72c-7,2.22-14,4.38-20.93,6.73C80,42.08,75.51,43.91,71,45.65a1.09,1.09,0,0,1-1.47-.92q-.8-9-1.59-18.09c-.11-1.21-.21-2.41-.31-3.63a1.09,1.09,0,0,0-1.34-1c-3.14.77-4.16,1-4.93-3.59a1.1,1.1,0,0,0-1.5-.84c-8.88,3.67-17.54,7.85-26.6,10.94L31.85,25.9l.07,0a358.44,358.44,0,0,1,39-23.65C72.2,1.51,73.62,1,75,.36c1.67-.8,2.82-.27,3.27,1.42.56,2.12.95,4.3,1.34,6.46a16.37,16.37,0,0,1,.19,2,1.09,1.09,0,0,0,.84,1c2.48.58,4.86,1,7.13,1.79a6.41,6.41,0,0,1,4.64,6.67c0,.47,0,.95,0,1.42,0,3.68.41,4,3.74,5.26a64.29,64.29,0,0,1,8.59,4.33A5.11,5.11,0,0,1,106.1,32.07Z"/><path class="cls-8" d="M92.34,139.62,94,137.77a27.25,27.25,0,0,1-3.51-2c-1-.79-1.74-1.78.25-2.51a19.45,19.45,0,0,0,3-1.7l11.88-2.45a21.88,21.88,0,0,1,4.18-.34c1.12.11,2.65.51,3.13,1.31.37.62-.36,2.24-1,3.06a23.49,23.49,0,0,1-3.59,3l6.4,4c5.15,3.6,8.95,8.08,9.66,14.63a5,5,0,0,0,.68,1.45c-.15.66-.56,1.39-.4,2,1.23,4.39,2.56,8.75,3.87,13.12.79,4.07,1.55,8.14,2.39,12.2.08.4.53.74.86,1.06,1.84,1.8,3.7,3.59,5.55,5.38l12,19.29L144.32,214c-.81-1-1.68-1.88-2.41-2.91q-8.53-12-17-24.13l4-1.43-.13-.89h-5.25q-5.91-6.83-11.82-13.66a5.91,5.91,0,0,1-.89-1.36c-1.77-3.85-3.51-7.7-5.26-11.56a71.29,71.29,0,0,0-.46-8.64c-.69-4.06-1.84-8.23-6.31-9.7C96.8,139.11,94.48,139.63,92.34,139.62ZM118.5,157l.88-.09a7.22,7.22,0,0,0,.09-2,30.38,30.38,0,0,0-12.24-18.12c-1.26-.91-1.36-1.65-.59-2.93a48.85,48.85,0,0,0,2.14-4.45l-.6-.34a18.14,18.14,0,0,0-2.34,3.4,5.52,5.52,0,0,1-5.13,3.71,18,18,0,0,0-3.53,1.07l.23.85a44.45,44.45,0,0,1,4.48-.75c1-.07,2.44-.15,3.05.43,3.94,3.72,8,7.38,10.31,12.47C116.28,152.57,117.42,154.78,118.5,157Z"/><path class="cls-9" d="M144.32,214l4.93-4.91a20.32,20.32,0,0,0,2.76-2q38.19-38.2,76.34-76.44c3.18-3.18,6.33-6.41,9.67-9.42a9.53,9.53,0,0,1,4.12-1.89,3.15,3.15,0,0,1,2.65.82c.36.42,0,1.88-.5,2.53a102,102,0,0,1-7.9,9.72q-29.39,29.9-59,59.59c-7.69,7.71-15.63,15.17-23.43,22.78a7.55,7.55,0,0,0-1.06,1.94l-4.24,3.84Z"/><path class="cls-10" d="M122.65,318.2a39.29,39.29,0,0,1-.14,5c-1.21,8,1.53,15.25,3.61,22.68,2.68,9.56,5.16,19.18,7.69,28.79a21.7,21.7,0,0,1,.36,3.18l-.55.65-17-7.84-3.48,5.95c-.75-2-1.35-3.45-1.79-4.91-2.73-9.07-5.6-18.18-4.77-27.81.65-7.61,1.84-15.18,2.79-22.77Z"/><path class="cls-11" d="M76.34,322.51c.17,7.17.43,14.34.49,21.51a122.36,122.36,0,0,1-.46,14.4,14.86,14.86,0,0,1-2.82,6.83A45.73,45.73,0,0,1,59.85,377.4a38.84,38.84,0,0,1-3.93,1.7c0-3.55-.38-6.61.06-9.55,2.4-15.72,5-31.42,7.56-47.12.18-1.08.33-2.17.5-3.26Z"/><path class="cls-12" d="M114.69,140l-6.4-4a23.49,23.49,0,0,0,3.59-3c.67-.83,1.41-2.45,1-3.06-.48-.8-2-1.2-3.13-1.31a21.87,21.87,0,0,0-4.18.34l0-1.51,3.77-.1,1-.21c8.18-.93,16.31-2.21,22.59-8.13,2.2-2.08,3.58-5,5.34-7.58a8.1,8.1,0,0,1,.37,2.39,27.73,27.73,0,0,1-1.17,5.29c-1.2,3.38-1.93,6.48-.1,10.08,1.54,3,.4,6.21-2.24,8.52a14.7,14.7,0,0,1-9.3,3.51c-1.23.06-2.42,1-3.63,1.52C119.92,141.37,117.66,139.75,114.69,140Zm3.67-5,.05.61a3.77,3.77,0,0,0,1.09.56c2.67.38,5.78-2,7-4.94a8.35,8.35,0,0,1,2.3-2.64c.8-.73,2-1.13,2.61-2,.47-.61.36-1.68.51-2.54l-.91-.37c-1.79,1.57-4.37,2.82-5.18,4.79C124.33,132.09,122.61,134.74,118.36,135Z"/><path class="cls-7" d="M122.65,318.2l-13.27,2.86-5.77,1c.45-1.58,1-3.19,1.35-4.85.58-2.69.94-5.42,1.58-8.09a4.14,4.14,0,0,1,1.57-2.11c1.31-1,2.78-1.7,4.18-2.53l2.47-.63,9.41-2.34c1.6-.22,3.2-.55,4.81-.63,2.32-.11,3,.74,2.42,3-.72,2.8-1.61,5.56-2.28,8.37a23.6,23.6,0,0,0-.28,3.84Z"/><path class="cls-13" d="M92.34,139.62c2.14,0,4.46-.51,6.4.13,4.47,1.48,5.62,5.64,6.31,9.7a71.33,71.33,0,0,1,.46,8.64c-.44-.14-.87-.32-1.32-.42-3.41-.77-7.1.91-8.1,3.66l-3.61-1.42-2.85-2.59c-1.36-2.12-2.88-4.16-4-6.39-1.8-3.43-1.22-5.93,1.87-8.33A49,49,0,0,1,92.34,139.62Z"/><path class="cls-7" d="M76.34,322.51,64,319.18,63,319c.31-1,.61-2,.92-3,.18-.57.22-1.29.6-1.67,3.19-3.17,6.44-6.27,9.67-9.4l3.49,1.87C79.8,308.41,82,310,84,311.65a3.25,3.25,0,0,1,1.21,2.14c-.05,4-.29,8-.46,11.77Z"/><path class="cls-14" d="M124.17,301.52l-9.41,2.34-2.47.63c.38-4,.72-8,1.15-12,.19-1.74.57-3.47.86-5.2l9.79,9.65Z"/><path class="cls-13" d="M114.69,140c3-.28,5.23,1.34,7.54,2.83a13.41,13.41,0,0,1,3.47,10.8,16,16,0,0,1-.67,2.45,5,5,0,0,1-.68-1.45C123.64,148.12,119.84,143.63,114.69,140Z"/><path class="cls-15" d="M137.3,189.83c-1.85-1.79-3.71-3.58-5.55-5.38-.33-.32-.78-.66-.86-1.06-.83-4.06-1.6-8.13-2.39-12.2l2,4.06c1.87,3.76,3.77,7.51,5.6,11.3A31.48,31.48,0,0,1,137.3,189.83Z"/><path class="cls-16" d="M77.67,306.8l-3.49-1.87,4.4-7.56Z"/><path class="cls-17" d="M79.58,82.86c-.38.93-.51,2.11-1.17,2.75-2,1.91-1.58,4-1.11,6.33s.66,4.5.92,6.76c.14,1.26-.53,1.8-1.77,2-4.21.63-5.68-.57-6-4.73,0-.69-.91-1.33-1.4-2a10.57,10.57,0,0,1-.51-10.5c2.82-6,5.37-12.25,8.94-17.82,2.29-3.58,6-6.41,9.45-9a28.63,28.63,0,0,1,8.71-4.15c1.92-.59,4.21,0,6.33.06a7.91,7.91,0,0,0,2.3.11,20.81,20.81,0,0,1,13.34.26,11.48,11.48,0,0,1,6.91,7.68,6,6,0,0,0,.41.82,5.11,5.11,0,0,1-1.6.71c-.76.05-1.54-.31-2.3-.27a10.06,10.06,0,0,0-2.11.55,8.55,8.55,0,0,0,1,2.47A17.51,17.51,0,0,0,122.67,67c-1.84,1.28-3.66.6-5.31-.3-3.78-2.07-7.45-4.34-11.23-6.42-2.29-1.26-4.69-2.32-7.16-3.53l.44,5a66.48,66.48,0,0,0-6.66,2.8,13.56,13.56,0,0,0-3.88,3.29c-1.28,1.56-.79,2.36,1.19,2.44,1.09,0,2.19,0,3.28,0L89,73.28l-2.39.87.05,0-6.2.79.47,2.57L79.2,79.84l-3.27-2.94-.58.55Zm-3.35-12a8.38,8.38,0,0,1,6.47-2.54,3.68,3.68,0,0,0,2.72-1.94c1.42-3.38,4-5.06,7.35-6a3.45,3.45,0,0,0,2.68-4.05,48,48,0,0,0-5.65,2.58,17.24,17.24,0,0,0-5,4A11.65,11.65,0,0,1,79.89,67c-1.67.72-3.6,1.4-3.69,3.77l-1.68,4.07.88.26Zm26.17-15c2,.56,4.28.89,6.25,1.88,1.7.86,3.12,1.48,5.06.95,2.17-.59,4.47-1.14,6.41.81.21.21.8,0,1.21.06a3.67,3.67,0,0,0-.12-1.24c-.94-1.93-3.72-2.8-7.15-2a6.11,6.11,0,0,1-5.33-.87C106.6,53.94,103.47,54.45,102.4,55.78Z"/><path class="cls-18" d="M59.63,104.74c-7.68-5.52-4.94-30.31,3.66-36.21C58.72,80.35,53.1,91.9,59.63,104.74Z"/><path class="cls-19" d="M132.53,77.53l-9,5.66A14.84,14.84,0,0,1,131.12,76c4.69-2.3,9.16-1.81,13.64.74,1,.54,2.47.08,4.52.08a41.23,41.23,0,0,0-3.62,3c-1.69,1.8-2.56.2-3.63-.72C139.19,76.62,136,76.45,132.53,77.53Z"/><path class="cls-18" d="M146.36,90.22a20.45,20.45,0,0,1,1.72-2.39A54.9,54.9,0,0,0,158.3,72.48c2.78-6.1,2.35-12.13-1.31-18.29a2.79,2.79,0,0,1,3.41,1.72,19.79,19.79,0,0,1,.82,11.57c-1.59,7.86-6.15,14.14-11.37,20-1,1.08-1.89,2.19-2.83,3.29Z"/><path class="cls-20" d="M122.67,67A17.51,17.51,0,0,1,120,64.85a8.55,8.55,0,0,1-1-2.47,10.06,10.06,0,0,1,2.11-.55c.76,0,1.55.32,2.3.27a5.11,5.11,0,0,0,1.6-.71c1.48,1.45,3,2.88,4.45,4.34,2.9,2.89,2.9,2.9,1.25,6.9-.27-.86-.28-2.19-.85-2.5-2.17-1.19-4.51-2.06-6.79-3.05Z"/><path class="cls-18" d="M43.68,107.89a10.49,10.49,0,0,1-2-2.63C38.86,96.77,40,88.62,44,80.77c.08-.15.37-.19,1-.47-2.89,9.21-6,18.15-.42,27.25Z"/><path class="cls-18" d="M163.72,80.15l10.34-19.81C174.83,64.91,168.4,77.34,163.72,80.15Z"/><path class="cls-17" d="M123,67.07c2.28,1,4.63,1.86,6.79,3.05.57.31.58,1.64.85,2.5l-.62,1.18c-.88-.45-1.75-.93-2.65-1.34C125,71.39,123,70.08,123,67.07Z"/><path class="cls-21" d="M139.73,96.41c-2.17-1.43-1.52-3.35-.9-5.26C140.87,92.6,141.18,94.35,139.73,96.41Z"/><path class="cls-22" d="M96.09,161.34c1-2.76,4.68-4.43,8.1-3.66.45.1.88.28,1.32.42,1.75,3.85,3.49,7.71,5.26,11.56a5.91,5.91,0,0,0,.89,1.36q5.9,6.84,11.82,13.66L124.9,187q8.5,12.07,17,24.13c.73,1,1.6,1.94,2.41,2.91l4.37,6.57a52.76,52.76,0,0,1,2.23,5.46c1,3.5-.48,5.45-4.08,5.71a2.7,2.7,0,0,0-1.11.2c-2,1.13-3.89,2.42-5.95,3.42s-4.51,1.47-6.72-.11l-2.74-6.75c0-2.66-.06-5.31-.15-8a3.52,3.52,0,0,0-.48-1.53q-9.12-16.29-18.27-32.56a4.18,4.18,0,0,0-.44-.55l-2.52-4.48c-1.14-2-2.21-4.11-3.44-6.08C102.09,170.68,99.07,166,96.09,161.34Z"/><path class="cls-23" d="M130.33,228.55l2.74,6.75L129.24,239l-1.44,1.45-6.08,5.74-2.39,2.36c-1.66,1.44-3.36,2.83-5,4.33Q96.71,269.39,79.1,286l-2.42-2.85a18.42,18.42,0,0,1,1.75-2.42q22.14-22.22,44.33-44.4c1.1-1.11,2.13-2.29,3.2-3.44l1.46-1.42Z"/><path class="cls-24" d="M104.36,205c-10.86,20-25.12,37.62-39.67,55l-.83-.46a6.5,6.5,0,0,1,.7-1.93c6-7.53,12.28-14.9,18.13-22.57,3.7-4.85,6.86-10.11,10.22-15.22,3-4.59,6-9.22,9-13.8a12.91,12.91,0,0,1,1.6-1.68Z"/><path class="cls-24" d="M127.42,231.47,126,232.88c-2.93-8.21-4.87-17.08-3.77-18.78C124.34,220,126.38,225.56,127.42,231.47Z"/><path class="cls-24" d="M108.47,181.46l2.52,4.48c-3.25-.77-6.51-1.5-9.75-2.33a3.36,3.36,0,0,1-1.69-1.16c-.3-.4-.22-1.09-.3-1.65a4.51,4.51,0,0,1,1.66-.13c1.77.57,3.47,1.38,5.26,1.89C107,182.79,108.33,183.13,108.47,181.46Z"/><path class="cls-24" d="M127.79,240.41l1.44-1.45c1,3.43,2.2,6.82,2.85,10.31,1.42,7.68,2.56,15.42,3.77,23.14a16.1,16.1,0,0,1,0,2.48l-.8.28a6.26,6.26,0,0,1-1-1.79c-1-5.07-1.77-10.17-2.74-15.23-1.06-5.53-2.26-11-3.38-16.57A10.43,10.43,0,0,1,127.79,240.41Z"/><path class="cls-24" d="M145.51,239.05c3.61,2.09,11.25,26.61,9.45,31.55Z"/><path class="cls-24" d="M119.32,248.5l2.39-2.36c-.25,10.59-2.33,20.87-4.68,31.11l-.8,0a17.61,17.61,0,0,1,0-2.52c.85-5.8,1.83-11.57,2.58-17.38C119.2,254.4,119.17,251.44,119.32,248.5Z"/><path class="cls-25" d="M79.58,82.86l-4.23-5.41.58-.55,3.27,2.94,1.75-2.35,5.73-3.36-.05,0L89,73.66c4.08-.51,8.14-.88,12.17.42a14.84,14.84,0,0,1,8,5.57,21,21,0,0,1,1.16,2.13l-.53.47a9.73,9.73,0,0,1-1.3-.89,19.52,19.52,0,0,0-26.91-.15C81,81.81,80.25,82.31,79.58,82.86Z"/><path class="cls-20" d="M93.35,70.39c-1.09,0-2.19,0-3.28,0-2-.08-2.47-.88-1.19-2.44a13.56,13.56,0,0,1,3.88-3.29,66.48,66.48,0,0,1,6.66-2.8c1.87-.17,3.73-.44,5.6-.47.66,0,1.79.44,1.88.87a2.68,2.68,0,0,1-.64,2.27,21.47,21.47,0,0,1-4.74,3C98.87,68.59,96.08,69.42,93.35,70.39Z"/><path class="cls-26" d="M123,107.5c-1.27-2.78-3.6-3.63-6-4.29-4.19-1.16-8.32-.27-12.25,1.05a82.68,82.68,0,0,0-9.38,4.33A3.17,3.17,0,0,0,94,110.16C103.32,105.55,112.77,103,123,107.5Z"/><path class="cls-21" d="M105.57,127.57l0,1.51-11.88,2.45-1.91-7.12Z"/><path class="cls-26" d="M73.21,109.57l2-3L70,102.4c-.24-.2-.59-.31-.75-.55-.46-.7-.86-1.44-1.28-2.17a8.71,8.71,0,0,1,2.39.8c2.49,1.76,4.87,3.67,7.33,5.46,1,.76,1.13,1.56.13,2.25-1.18.82-2.51,1.43-3.78,2.14Z"/><path class="cls-19" d="M89.65,85.74l1.58-2.35a13,13,0,0,1,2.22,2.34,4.15,4.15,0,0,1,.47,2.72,9.7,9.7,0,0,1-1.53,2.62,9.75,9.75,0,0,1-2-2A13.46,13.46,0,0,1,89.65,85.74Z"/><path class="cls-25" d="M132.62,88.47l-1.92,2.58c-.77-.76-1.89-1.39-2.22-2.31a9.15,9.15,0,0,1-.22-3.93,2.14,2.14,0,0,1,1.36-1.36c.36-.11,1.18.47,1.41.93A42.83,42.83,0,0,1,132.62,88.47Z"/><path class="cls-26" d="M122.1,93.61c-.79-.86-1.08-1-1.08-1.2,0-2.94-1.47-4-4.3-3.66-.34,0-.83-.5-1.11-.87-.08-.11.26-.71.54-.87A4.66,4.66,0,0,1,123,90.31C123.07,91.19,122.51,92.16,122.1,93.61Z"/><path class="cls-21" d="M139.34,97.24l-2.1,1.91c-.44-.51-1.23-1-1.22-1.54a2.06,2.06,0,0,1,1.2-1.56C137.67,95.93,138.34,96.64,139.34,97.24Z"/><path class="cls-21" d="M87.75,98c.64,1,1.28,1.61,1.17,2a7.26,7.26,0,0,1-1.31,1.91c-.47-.49-1.33-1-1.31-1.47C86.32,99.8,87,99.18,87.75,98Z"/><path class="cls-21" d="M134.7,90.08c.6.9,1.27,1.49,1.17,1.85a7.21,7.21,0,0,1-1.29,1.93c-.48-.6-1.24-1.14-1.36-1.81C133.14,91.62,134,91,134.7,90.08Z"/><path class="cls-21" d="M90.51,94.41a10.94,10.94,0,0,1-2.08,1.83c-.19.09-1.29-.94-1.21-1.18a3.94,3.94,0,0,1,1.42-1.82C88.83,93.11,89.61,93.83,90.51,94.41Z"/><path class="cls-21" d="M83.69,95.13c.57,1.2,1.11,1.8,1,2.24-.15.63-.78,1.14-1.2,1.7-.38-.49-1.05-1-1.05-1.46S83,96.39,83.69,95.13Z"/><path class="cls-22" d="M89,73.66l-2.39.49L89,73.28Q89,73.47,89,73.66Z"/><path class="cls-21" d="M110.37,127.26l-1,.21Z"/><path class="cls-27" d="M53.29,311A73.2,73.2,0,0,1,22.41,331.9c-.28.1-.67-.13-1.16-.54a85.83,85.83,0,0,0,32.76-23c1.86,2.5,1.65,6.21,0,9-3.42,6-8.46,10.51-13.49,15-.38.34-.94.47-1.13,1,6.6-1.17,11.18-5.72,16.27-9.36l.57.56a10,10,0,0,1-1,1.86c-5.13,6.21-12,9.25-19.72,10.57-.56.1-1.23-.42-1.85-.66a5.86,5.86,0,0,1,.92-1.66c4.51-4,9.18-7.9,13.53-12.1a31.58,31.58,0,0,0,5-6.82c.73-1.24.72-2.9,1-4.37Z"/><path class="cls-27" d="M70,286.89c-2,1.31-4.39,2.27-5.9,4-3,3.41-5.46,7.26-8.16,10.92-.44.59-.9,1.16-1.73,2.23.42-7,11.5-18.34,18.36-20.21,1.26,2.5-1.77,3.52-2.11,5.86L74,287.29c0,2.35-7.42,9.41-11.07,10.53,1-4.72,4.83-7.34,7.14-10.88l.45-.49a.65.65,0,0,0,.16-.09s0-.09,0-.13l-.2.21Zm-.44,3.36.2-.22-.23.19-.19.22Z"/><path class="cls-27" d="M53.11,306.21a8,8,0,0,1-1.66,1.16c-4.12,1.54-8.31,2.92-12.4,4.54-7.68,3-15.3,6.21-23,9.32-1.13.46-2.28.88-3.41,1.31l-.39-.61a10,10,0,0,1,1.77-1.32c8.18-3.68,16.32-7.47,24.6-10.92,4-1.69,8.34-2.76,12.53-4.08a6.39,6.39,0,0,1,1.56-.09Z"/><path class="cls-27" d="M20.66,314c1.4-4.51,17.37-12.5,22.87-10.32C35.06,306.22,27.26,308.82,20.66,314Z"/><path class="cls-28" d="M68.66,114.9c-2.19,2.82-3.89,5.85-3.32,9.52a24,24,0,0,0,1.55,5.83c1.56,3.59,1.26,4.81-2,6.69A5.72,5.72,0,0,0,63,138.88c-1.59,2.56-3.08,5.18-4.59,7.8-.73,1.27-1.34,2.62-2.13,3.85a9.43,9.43,0,0,1-1.67,1.58c-.33-.79-1.15-1.82-.91-2.34,1.12-2.38,2.62-4.58,3.83-6.93,1-1.91,1.62-4,2.66-5.87.58-1,1.54-2.32,2.55-2.56,1.95-.46,2.38-1.24,1.58-2.92-2.47-5.2-1.56-10.07,1.48-14.69A19.65,19.65,0,0,1,68,114.39Z"/><path class="cls-28" d="M70.15,143c1.47-.64,2.94-1.28,4.42-1.9a5.23,5.23,0,0,0,3.63-5.22,5.24,5.24,0,0,1,1.6-3.19A66.29,66.29,0,0,1,85,128.19a5.5,5.5,0,0,1,1-.52c1.14,2.45.56,4.45-1.91,5.72a7.1,7.1,0,0,0-4.18,5.79,5.29,5.29,0,0,1-5.43,4.61c-1.38,0-2.77,0-4.16,0Z"/><path class="cls-28" d="M83.65,150.37a5,5,0,0,1-5.23,4.78,12.9,12.9,0,0,1-3.23-.5c-2.16-.64-4.16-1-5.38,2.22-.45-2.51.85-3.09,2.19-3.51a3.75,3.75,0,0,1,2.1-.05c3.26,1,6,.52,8.1-2.39C82.41,150.63,83,150.6,83.65,150.37Z"/><path class="cls-28" d="M81.29,119.71c-3.54,1.88-3.53,5.16-4.19,8.23a4.71,4.71,0,0,1-3.68,4c.62-.83,1.56-1.57,1.81-2.49a34.41,34.41,0,0,0,1-5.94C76.42,120.82,78.49,118.91,81.29,119.71Z"/><path class="cls-29" d="M68.49,144.92l.16-.07,0,.25a.46.46,0,0,1-.18,0S68.5,145,68.49,144.92Z"/><path class="cls-24" d="M118.5,157c-1.09-2.23-2.22-4.44-3.24-6.7-2.31-5.1-6.37-8.75-10.31-12.47-.62-.58-2-.5-3.05-.43a44.45,44.45,0,0,0-4.48.75l-.23-.85a18,18,0,0,1,3.53-1.07,5.52,5.52,0,0,0,5.13-3.71,18.14,18.14,0,0,1,2.34-3.4l.6.34a48.85,48.85,0,0,1-2.14,4.45c-.77,1.28-.67,2,.59,2.93A30.38,30.38,0,0,1,119.47,155a7.22,7.22,0,0,1-.09,2Z"/><path class="cls-24" d="M124.9,187l-1.42-2.32h5.25l.13.89Z"/><path class="cls-28" d="M118.36,135c4.25-.28,6-2.93,7.44-6.5.81-2,3.4-3.22,5.18-4.79l.91.37c-.15.86,0,1.93-.51,2.54-.64.83-1.8,1.22-2.61,2a8.35,8.35,0,0,0-2.3,2.64c-1.21,2.95-4.33,5.32-7,4.94a3.77,3.77,0,0,1-1.09-.56Z"/><path class="cls-28" d="M76.2,70.8c.09-2.36,2-3.05,3.69-3.77a11.65,11.65,0,0,0,4.93-4.15,17.24,17.24,0,0,1,5-4,48,48,0,0,1,5.65-2.58,3.45,3.45,0,0,1-2.68,4.05c-3.33,1-5.93,2.63-7.35,6a3.68,3.68,0,0,1-2.72,1.94,8.38,8.38,0,0,0-6.47,2.54Z"/><path class="cls-28" d="M102.4,55.78c1.08-1.33,4.21-1.84,6.33-.39a6.11,6.11,0,0,0,5.33.87c3.43-.82,6.21,0,7.15,2a3.67,3.67,0,0,1,.12,1.24c-.41,0-1,.15-1.21-.06-1.94-1.95-4.24-1.4-6.41-.81-1.95.53-3.37-.09-5.06-.95C106.67,56.66,104.36,56.34,102.4,55.78Z"/><path class="cls-22" d="M86.67,74.13l-5.73,3.36-.47-2.57Z"/><path class="cls-29" d="M76.23,70.82l-.82,4.31-.88-.26L76.2,70.8Z"/><path class="cls-5" d="M70.52,286.44l.2-.21s0,.1,0,.13a.65.65,0,0,1-.16.09Z"/><path class="cls-5" d="M70.53,286.45l-.45.49,0,0,.49-.45Z"/><path class="cls-5" d="M69.57,290.23l.23-.19-.2.22Z"/><path class="cls-5" d="M69.59,290.25l-.21.19.19-.22Z"/></g></g></svg>